<?xml version="1.0" encoding="utf-8"?>
<!-- Generator: Adobe Illustrator 16.0.0, SVG Export Plug-In . SVG Version: 6.00 Build 0)  -->
<!DOCTYPE svg PUBLIC "-//W3C//DTD SVG 1.1//EN" "http://www.w3.org/Graphics/SVG/1.1/DTD/svg11.dtd">
<svg version="1.1" id="Layer_1" xmlns="http://www.w3.org/2000/svg" xmlns:xlink="http://www.w3.org/1999/xlink" x="0px" y="0px"
	 width="612px" height="387.044px" viewBox="0 0 612 387.044" enable-background="new 0 0 612 387.044" xml:space="preserve">
<path fill-rule="evenodd" clip-rule="evenodd" fill="#262626" d="M238.668,273.551c0-24.916,0.439-49.842-0.101-74.746
	c-0.813-37.38,9.698-77.546,28.679-108.594c31.446-57.819,91.632-90.21,158.304-90.21c83.793,0,145.501,46.085,171.328,110.494
	c12.201,30.433,15.131,60.787,15.135,93.759c0.004,50.218,0.004,102.466,0.001,152.682c0,14.348-5.77,23.512-17.512,27.858
	c-13.646,5.049-29.937,1.428-37.678-8.145c-5.039-6.226-5.82-13.555-5.82-21.193c0.005-49.445,0-98.891,0.002-148.339
	c0.264-92.562-43.86-131.616-93.058-143.281c-69.992-10.649-119.697,13.695-147.085,73.035
	c-9.325,20.207-12.848,48.787-12.814,71.123c0.075,49.448-0.479,98.899,0.259,148.333c0.323,21.527-15.124,31.748-32.347,30.549
	c-5.893-0.412-12.065-2.625-17.298-5.569c-6.626-3.726-10.218-9.881-10.123-18.521C238.868,333.043,238.667,303.297,238.668,273.551
	z"/>
<path fill-rule="evenodd" clip-rule="evenodd" fill="#262626" d="M188.524,387.02c-35.449,0.8-67.581-9.759-97.023-28.417
	c-47.538-30.124-77.018-73.151-87.965-128.46c-16.611-83.89,26.571-171.142,103.167-209.28
	c28.023-13.951,57.642-20.855,88.91-20.858C243.233,0,190.502,0,238.123,0.001c13.604,0,25.96,8.28,28.967,17.856
	c4.266,13.584,1.48,26.525-6.221,34.925c-5.205,5.678-14.459,7.19-21.701,7.19c-46.889-0.004-16.693-0.004-42.762-0.004
	c-64.361-0.003-116.814,40.667-132.88,103.032c-15.39,59.722,16.813,126.659,73.099,152.452
	c19.304,8.846,39.432,13.131,60.611,13.099c46.888-0.071,20.353,0.473,67.233-0.255c20.41-0.316,30.107,14.866,28.976,31.797
	c-0.392,5.792-1.108,9.063-3.895,14.208c-3.535,6.513-10.763,12.838-18.954,12.742L188.524,387.02z"/>
<path fill-rule="evenodd" clip-rule="evenodd" fill="#01C9FF" d="M453.239,304.315c0,20.066,0.194,40.134-0.145,60.193
	c-0.077,4.651-1.272,9.578-3.182,13.826c-2.427,5.404-7.25,8.318-13.479,8.313c-6.368-0.004-12.732,0.067-19.098,0.072
	c-13.236,0.01-20.309-6.791-20.588-20.123c-0.202-9.835-0.072-19.68-0.072-29.519c-0.006-31.064-0.187-128.018,0.194-159.076
	c0.061-5.124,1.509-10.967,4.337-15.095c2.383-3.479,7.506-6.433,11.759-6.993c8.15-1.067,16.565-0.574,24.843-0.163
	c8.193,0.409,14.961,8.786,15.187,19.01c0.357,16.006,0.23,97.912,0.295,113.926c0.021,5.209,0.005,10.419,0.005,15.628
	C453.275,304.315,453.26,304.315,453.239,304.315z"/>
</svg>
